<mxfile host="app.diagrams.net" modified="2023-09-15T10:38:51.104Z" agent="Mozilla/5.0 (Macintosh; Intel Mac OS X 10_15_7) AppleWebKit/537.36 (KHTML, like Gecko) Chrome/116.0.0.0 Safari/537.36" etag="jaGK0tP_WNkJNPyFBy2A" version="21.7.2" type="device">
  <diagram name="Page-1" id="Q543HqNQ5SgZFcflZJ4G">
    <mxGraphModel dx="1306" dy="736" grid="1" gridSize="10" guides="1" tooltips="1" connect="1" arrows="1" fold="1" page="1" pageScale="1" pageWidth="850" pageHeight="1100" math="0" shadow="0">
      <root>
        <mxCell id="0" />
        <mxCell id="1" parent="0" />
        <mxCell id="tPvi7C4tEu4_2XyLMkJ0-13" style="edgeStyle=orthogonalEdgeStyle;rounded=0;orthogonalLoop=1;jettySize=auto;html=1;exitX=0.5;exitY=1;exitDx=0;exitDy=0;entryX=0.5;entryY=0;entryDx=0;entryDy=0;" parent="1" source="tPvi7C4tEu4_2XyLMkJ0-1" target="tPvi7C4tEu4_2XyLMkJ0-2" edge="1">
          <mxGeometry relative="1" as="geometry" />
        </mxCell>
        <mxCell id="tPvi7C4tEu4_2XyLMkJ0-18" value="REST" style="edgeLabel;html=1;align=center;verticalAlign=middle;resizable=0;points=[];" parent="tPvi7C4tEu4_2XyLMkJ0-13" vertex="1" connectable="0">
          <mxGeometry x="-0.14" relative="1" as="geometry">
            <mxPoint as="offset" />
          </mxGeometry>
        </mxCell>
        <mxCell id="tPvi7C4tEu4_2XyLMkJ0-14" style="edgeStyle=orthogonalEdgeStyle;rounded=0;orthogonalLoop=1;jettySize=auto;html=1;exitX=0.75;exitY=1;exitDx=0;exitDy=0;" parent="1" source="tPvi7C4tEu4_2XyLMkJ0-1" target="tPvi7C4tEu4_2XyLMkJ0-3" edge="1">
          <mxGeometry relative="1" as="geometry" />
        </mxCell>
        <mxCell id="tPvi7C4tEu4_2XyLMkJ0-19" value="REST" style="edgeLabel;html=1;align=center;verticalAlign=middle;resizable=0;points=[];" parent="tPvi7C4tEu4_2XyLMkJ0-14" vertex="1" connectable="0">
          <mxGeometry x="0.0983" y="-1" relative="1" as="geometry">
            <mxPoint as="offset" />
          </mxGeometry>
        </mxCell>
        <mxCell id="tPvi7C4tEu4_2XyLMkJ0-1" value="UI" style="rounded=0;whiteSpace=wrap;html=1;" parent="1" vertex="1">
          <mxGeometry x="365" y="170" width="120" height="60" as="geometry" />
        </mxCell>
        <mxCell id="tPvi7C4tEu4_2XyLMkJ0-10" style="edgeStyle=orthogonalEdgeStyle;rounded=0;orthogonalLoop=1;jettySize=auto;html=1;exitX=0.5;exitY=1;exitDx=0;exitDy=0;entryX=0.5;entryY=0;entryDx=0;entryDy=0;entryPerimeter=0;startArrow=none;startFill=0;" parent="1" source="tPvi7C4tEu4_2XyLMkJ0-2" target="tPvi7C4tEu4_2XyLMkJ0-5" edge="1">
          <mxGeometry relative="1" as="geometry" />
        </mxCell>
        <mxCell id="tPvi7C4tEu4_2XyLMkJ0-22" value="socket communication" style="edgeLabel;html=1;align=center;verticalAlign=middle;resizable=0;points=[];" parent="tPvi7C4tEu4_2XyLMkJ0-10" vertex="1" connectable="0">
          <mxGeometry x="0.4776" y="1" relative="1" as="geometry">
            <mxPoint as="offset" />
          </mxGeometry>
        </mxCell>
        <mxCell id="tPvi7C4tEu4_2XyLMkJ0-2" value="persons service" style="rounded=0;whiteSpace=wrap;html=1;" parent="1" vertex="1">
          <mxGeometry x="365" y="330" width="120" height="60" as="geometry" />
        </mxCell>
        <mxCell id="tPvi7C4tEu4_2XyLMkJ0-11" style="edgeStyle=orthogonalEdgeStyle;rounded=0;orthogonalLoop=1;jettySize=auto;html=1;exitX=0.5;exitY=1;exitDx=0;exitDy=0;entryX=1;entryY=0.5;entryDx=0;entryDy=0;entryPerimeter=0;startArrow=none;startFill=0;" parent="1" source="tPvi7C4tEu4_2XyLMkJ0-3" target="tPvi7C4tEu4_2XyLMkJ0-5" edge="1">
          <mxGeometry relative="1" as="geometry" />
        </mxCell>
        <mxCell id="tPvi7C4tEu4_2XyLMkJ0-23" value="socket communication" style="edgeLabel;html=1;align=center;verticalAlign=middle;resizable=0;points=[];" parent="tPvi7C4tEu4_2XyLMkJ0-11" vertex="1" connectable="0">
          <mxGeometry x="-0.7064" relative="1" as="geometry">
            <mxPoint as="offset" />
          </mxGeometry>
        </mxCell>
        <mxCell id="L5fxprW-xy69-4EO-GUM-1" style="edgeStyle=orthogonalEdgeStyle;rounded=0;orthogonalLoop=1;jettySize=auto;html=1;exitX=0;exitY=0.5;exitDx=0;exitDy=0;entryX=1;entryY=0.5;entryDx=0;entryDy=0;" parent="1" source="tPvi7C4tEu4_2XyLMkJ0-3" target="tPvi7C4tEu4_2XyLMkJ0-2" edge="1">
          <mxGeometry relative="1" as="geometry" />
        </mxCell>
        <mxCell id="L5fxprW-xy69-4EO-GUM-2" value="REST" style="edgeLabel;html=1;align=center;verticalAlign=middle;resizable=0;points=[];" parent="L5fxprW-xy69-4EO-GUM-1" vertex="1" connectable="0">
          <mxGeometry x="-0.0857" relative="1" as="geometry">
            <mxPoint as="offset" />
          </mxGeometry>
        </mxCell>
        <mxCell id="tPvi7C4tEu4_2XyLMkJ0-3" value="connections service" style="rounded=0;whiteSpace=wrap;html=1;" parent="1" vertex="1">
          <mxGeometry x="590" y="330" width="120" height="60" as="geometry" />
        </mxCell>
        <mxCell id="tPvi7C4tEu4_2XyLMkJ0-4" value="locations ingestion" style="rounded=0;whiteSpace=wrap;html=1;" parent="1" vertex="1">
          <mxGeometry x="130" y="330" width="120" height="60" as="geometry" />
        </mxCell>
        <mxCell id="tPvi7C4tEu4_2XyLMkJ0-5" value="Postgres DB" style="shape=cylinder3;whiteSpace=wrap;html=1;boundedLbl=1;backgroundOutline=1;size=15;" parent="1" vertex="1">
          <mxGeometry x="395" y="650" width="60" height="80" as="geometry" />
        </mxCell>
        <mxCell id="tPvi7C4tEu4_2XyLMkJ0-9" style="edgeStyle=orthogonalEdgeStyle;rounded=0;orthogonalLoop=1;jettySize=auto;html=1;exitX=0.5;exitY=1;exitDx=0;exitDy=0;entryX=0;entryY=0.5;entryDx=0;entryDy=0;entryPerimeter=0;startArrow=none;startFill=0;" parent="1" source="tPvi7C4tEu4_2XyLMkJ0-6" target="tPvi7C4tEu4_2XyLMkJ0-5" edge="1">
          <mxGeometry relative="1" as="geometry" />
        </mxCell>
        <mxCell id="tPvi7C4tEu4_2XyLMkJ0-21" value="socket communication" style="edgeLabel;html=1;align=center;verticalAlign=middle;resizable=0;points=[];" parent="tPvi7C4tEu4_2XyLMkJ0-9" vertex="1" connectable="0">
          <mxGeometry x="-0.1429" relative="1" as="geometry">
            <mxPoint as="offset" />
          </mxGeometry>
        </mxCell>
        <mxCell id="L5fxprW-xy69-4EO-GUM-5" style="edgeStyle=orthogonalEdgeStyle;rounded=0;orthogonalLoop=1;jettySize=auto;html=1;exitX=0.5;exitY=0;exitDx=0;exitDy=0;entryX=0.5;entryY=1;entryDx=0;entryDy=0;" parent="1" source="tPvi7C4tEu4_2XyLMkJ0-6" target="L5fxprW-xy69-4EO-GUM-4" edge="1">
          <mxGeometry relative="1" as="geometry" />
        </mxCell>
        <mxCell id="tPvi7C4tEu4_2XyLMkJ0-6" value="locations&lt;br&gt;service" style="rounded=0;whiteSpace=wrap;html=1;" parent="1" vertex="1">
          <mxGeometry x="130" y="600" width="120" height="60" as="geometry" />
        </mxCell>
        <mxCell id="tPvi7C4tEu4_2XyLMkJ0-12" value="" style="edgeStyle=orthogonalEdgeStyle;rounded=0;orthogonalLoop=1;jettySize=auto;html=1;exitX=0.5;exitY=1;exitDx=0;exitDy=0;entryX=0.5;entryY=0;entryDx=0;entryDy=0;startArrow=none;startFill=0;" parent="1" source="tPvi7C4tEu4_2XyLMkJ0-4" target="L5fxprW-xy69-4EO-GUM-4" edge="1">
          <mxGeometry relative="1" as="geometry">
            <mxPoint x="190" y="450" as="sourcePoint" />
          </mxGeometry>
        </mxCell>
        <mxCell id="kzbcff0smIbVnes6PVZF-3" value="producer" style="edgeLabel;html=1;align=center;verticalAlign=middle;resizable=0;points=[];" vertex="1" connectable="0" parent="tPvi7C4tEu4_2XyLMkJ0-12">
          <mxGeometry x="-0.2857" y="-3" relative="1" as="geometry">
            <mxPoint as="offset" />
          </mxGeometry>
        </mxCell>
        <mxCell id="tPvi7C4tEu4_2XyLMkJ0-16" style="edgeStyle=orthogonalEdgeStyle;rounded=0;orthogonalLoop=1;jettySize=auto;html=1;exitX=0.5;exitY=1;exitDx=0;exitDy=0;entryX=0.5;entryY=0;entryDx=0;entryDy=0;" parent="1" edge="1">
          <mxGeometry relative="1" as="geometry">
            <mxPoint x="190" y="230" as="sourcePoint" />
            <mxPoint x="190" y="330" as="targetPoint" />
          </mxGeometry>
        </mxCell>
        <mxCell id="tPvi7C4tEu4_2XyLMkJ0-17" value="gRPC" style="edgeLabel;html=1;align=center;verticalAlign=middle;resizable=0;points=[];" parent="tPvi7C4tEu4_2XyLMkJ0-16" vertex="1" connectable="0">
          <mxGeometry x="-0.02" y="-1" relative="1" as="geometry">
            <mxPoint as="offset" />
          </mxGeometry>
        </mxCell>
        <mxCell id="L5fxprW-xy69-4EO-GUM-3" value="phone&lt;br&gt;location" style="rounded=0;whiteSpace=wrap;html=1;" parent="1" vertex="1">
          <mxGeometry x="130" y="170" width="120" height="60" as="geometry" />
        </mxCell>
        <mxCell id="L5fxprW-xy69-4EO-GUM-4" value="Kafla" style="rounded=0;whiteSpace=wrap;html=1;" parent="1" vertex="1">
          <mxGeometry x="130" y="460" width="120" height="60" as="geometry" />
        </mxCell>
      </root>
    </mxGraphModel>
  </diagram>
</mxfile>
